<?xml version="1.0" encoding="utf-8"?>
<!-- Generator: Adobe Illustrator 25.2.0, SVG Export Plug-In . SVG Version: 6.00 Build 0)  -->
<svg version="1.1" id="Calque_1" xmlns="http://www.w3.org/2000/svg" xmlns:xlink="http://www.w3.org/1999/xlink" x="0px" y="0px"
	 viewBox="0 0 1000 1000" style="enable-background:new 0 0 1000 1000;" xml:space="preserve">
<style type="text/css">
	.st0{fill:#EFAEAE;}
	.st1{fill:#EFCEAE;}
	.st2{opacity:0.24;}
	.st3{fill:#C6A88F;}
	.st4{opacity:0.28;fill:#C6A88F;}
	.st5{fill:#EFE3E4;}
	.st6{fill:none;stroke:#6B5C4F;stroke-width:4;stroke-linecap:round;stroke-linejoin:round;stroke-miterlimit:10;}
	.st7{fill:#6B5C4F;}
	.st8{fill:none;stroke:#6B5C4F;stroke-width:2;stroke-linecap:round;stroke-linejoin:round;stroke-miterlimit:10;}
	.st9{fill:#FFE67F;}
	.st10{fill:#6C5D4F;}
	.st11{fill:none;stroke:#FFF2F3;stroke-width:3;stroke-linecap:round;stroke-linejoin:round;stroke-miterlimit:10;}
</style>
<path class="st0" d="M242.1,961.1c58.1,17.7,280.9,78.4,358.8-7.2c3.3-3.6,5.2-8.2,5.7-13.1c2-19.4,4.5-71.9-22.2-93.8L742.6,765
	c8.3-4.3,18.4-4.8,26.7-0.5c0.1,0,0.2,0.1,0.3,0.1c8.3,4.5,18.1,5.4,26.8,1.7c4.1-1.7,7.1-3.8,7.5-5.7c0.6-3.1-20.8-5.4-37.5-9.4
	c-21.8-5.2-33.4-20.7-38.5-42.5c-1.1-4.6-0.6-10.8-0.4-15.6c0.1-1.8-1.8-4.5-3.6-3.9c-4.9,1.6-20,8-21.6,23.2
	c-0.4,4.2-2.9,7.9-6.6,9.8c-27.7,14.2-137.5,70.5-162.3,83.2c-2.9,1.5-6.4,1.1-9-1c-8.2-6.8-27.5-20.6-45-14.5
	c0,0,0.5,19.4-37.8,19.9S400.1,792,400.1,792l-4,4.2c-1.8,1.9-5,1.3-6-1.2c-8.9-23.7-49.4-115.7-141.4-110.1
	c-82.8,5-92.4,40.9-92.7,56.1c-0.1,3.3-3.1,5.6-6.3,4.9c-7.6-1.6-19.3-3-24,2.8c-1.6,2-3.6,3.7-6.1,4.7c-5.8,2.3-16.3,13.6-11,24.8
	c0,0,69.2-8,86.8,49.5c0,0,18.1-2.1,18.6-21.3c0.3-12-7.1-15.5-12.7-16.4c-3-0.5-4.5-3.9-2.8-6.5c6-9.1,22-24.8,61.8-24.1
	c44.7,0.9,54.4,37.5,56.4,52.1c0.5,3.6-0.3,7.3-2.3,10.4L236,944.3C232,950.6,235,958.9,242.1,961.1z"/>
<path class="st1" d="M195.4,838c-2,9.7-10.1,16.8-20,17.5c-1,0.1-2.1,0.1-3.3,0.1c-0.6,0-1.1,0-1.7-0.1c0,0-0.3,0.7-0.8,1.8
	c-3,6.2-14.2,25.9-32.4,22.6c-17.5-3.3-23.8-17.9-25.5-23.3c-0.4-1.3-0.5-2-0.5-2s-0.4,0-1,0c-2.1-0.1-6.8-0.5-10.3-2.2
	c-4.5-2.3-5.1-6.5-5.1-6.5s-0.1,0.1-0.2,0.1c-0.3,0.3-1.2,0.8-2.5,1.2c-3.2,1-9.2,1.1-17.5-6.4c-12.6-11.5-5.2-31.6-5.2-31.6
	s14.1-43,66.3-33.3c52.2,9.7,58.6,46.7,58.6,46.7S197.2,829,195.4,838z"/>
<path class="st1" d="M811.6,764.9c-8.9-3-23.9-7.6-31.8-9.9c-2.7-0.8-5.4-1.3-8.2-1.6c-3.6-0.4-11.2-1.9-26.8-6.7
	c-19.1-5.9-22.7-36.7-23.3-52.7c-0.2-6.9,2.2-13.6,7-18.6c2.4-2.6,5.6-5.6,9.6-8.7c8.9-7,18.3-4.1,22.6-2.2c0.2,0.1,0.4,0.2,0.5,0.2
	c0.2,0.1,0.4,0.2,0.7,0.4c0.7,0.4,1.1,0.6,1.1,0.6s-0.1-1.2,0.1-3.1c0.5-7.2,4.5-23.9,31-16.9c30.5,8,30.2,27.2,29.9,30.5
	c0,0.1,0,0.1,0,0.2c0,0.2,0,0.3,0,0.3h0c0.2,0.1,1.2,0.3,2.7,1c3.1,1.4,8.2,4.4,12.1,10.6c4.6,7.4,3.6,13.6,2.8,16
	c0,0.1-0.1,0.2-0.1,0.2c-0.2,0.6-0.3,0.9-0.3,0.9s1.3-0.8,3.2-1c4.1-0.4,10.7,2.1,11.4,22.3C856.8,756.2,824.1,769.1,811.6,764.9z"
	/>
<path class="st1" d="M825.9,448.8c12.8,18.4,20.1,34.8,9.2,83.6c-9.8,44.3-63.1,78.7-74.6,85.7c-1.4,0.9-2.2,1.3-2.2,1.3
	s0.7,5.7-1.9,14.5c0,0,0,0.1,0,0.1c-1.2,4.2-3.2,9-6.3,14.3c-6.9,11.7-19.6,25.3-42.6,37.6c-17.1,9.1-34.2,12-49.7,11.7
	c0,0-0.1,0-0.1,0c-23.9-0.6-43.8-9-53.7-14c-3.4-1.8-7.3-0.8-10.5,1.3c-82.6,56-115.1,52.5-115.1,52.5l1.4,57.5
	c0,0-2.8,14-36.9,15.6c-34.1,1.6-41.6-11.4-41.6-11.4s-7.6-40.7-24.1-79.5c-16.5-38.9-80.5-87.9-80.5-87.9l-31.4-2.1l-138-36.8
	l-18.6-125.7l118.8,14.4l-36.2-81c0,0,102.3-272.2,344.1-266.3s318.7,237.7,318.7,237.7L825.9,448.8z"/>
<g class="st2">
	<path class="st3" d="M758.4,620.8c0,5.9-0.4,9-1.9,13.1c0,0,0,0.1,0,0.1c-1.9,5-4,9.8-6.3,14.3c-6.9,11.7-19.6,25.3-42.6,37.6
		c-17.1,9.1-34.2,12-49.7,11.7c0,0-0.1,0-0.1,0c-41.5-2.2-72.7-24.4-74.6-25.6c-1.9-1.2-2.5-3.7-1.3-5.6c1.2-1.9,3.7-2.5,5.6-1.4
		c0.6,0.4,64.3,38.8,114,19.4c24.4-9.5,39.3-28.6,48.9-62.8c0.6-2.2,2.9-3.4,5.1-2.8C756.7,619.1,758.4,619.8,758.4,620.8z"/>
</g>
<path class="st4" d="M76.6,472.2c0,0-37,155,43.9,184.4S291.7,631,291.7,631l-29.5-21.9c0,0-25.1,15.3-68.4-14.5
	S156.1,513,156.1,513s0.7-22.5,27-29.8c21.5-5.9,47.8,7.3,56.7,12.3c3.3,1.9,7.3,2.4,10.9,1.2c0.1,0,0.1,0,0.2-0.1
	c5.2-1.7-12.5-48.8-12.5-48.8s20.4-13.5,35.6-51.5s2.8-65.7,2.8-65.7s51.5-9.3,76.5-35.6c24.9-26.3,41.2-55.4,37.7-84.4
	c0,0,27,16.6,69.5,13.1s57.4-19.7,57.4-19.7s32.2,20.1,56.4,20.4c24.2,0.3,60.2-13.8,60.2-13.8s25.6,22.5,41.9,31.8
	c16.3,9.3,54,8.6,54,8.6s-1,30.4,9.7,47.4c10.7,17,36.7,22.8,36.7,22.8s1,25.3,11.8,45.3c10.7,20.1,36.7,30.8,36.7,30.8
	s-10,34.9-5.9,51.5c4.2,16.6,31.5,44.6-4.2,106.2c-30.1,52-46.6,66.7-53.3,67.6c-1.2,0.2,1.3,0.5,1.2,1.7c-0.1,3.3,6.7,7.5,16.7,8.3
	c13.4,1,69.9,7.7,119.4-32.1c7.3-5.9,12.2-14.4,13.5-23.8c0-0.1,0-0.2,0-0.3c1.4-10.4,41.9-12.1,44.3-69.9
	c2.4-57.8-33.2-85.1-33.2-85.1s10.4-19.4,0-66.8c-10.4-47.4-43.6-46.7-43.6-46.7s34.2-34.9-14.9-115.2
	c-49.1-80.3-97.9-62.2-97.9-62.2s-4.2-50.6-73-80.7s-107.6,2.4-107.6,2.4S545,7.3,481.6,13.1s-86.1,53.3-86.1,53.3
	s-66.8-6.6-117.6,28S208,155.7,208,155.7s-92.7-7.6-120,46.4S77.2,325.9,77.2,325.9S47.1,356,47.1,401.3S76.6,472.2,76.6,472.2z"/>
<path class="st5" d="M65.3,472.8c0,0-38,159.1,45.1,189.3s187.8-29.3,187.8-29.3l-39.7-30.4c0,0-28.4,26.6-72.8-3.9
	s-38.7-83.8-38.7-83.8s0.7-23.1,27.7-30.5c22-6.1,49,7.5,58.2,12.7c3.4,1.9,7.5,2.5,11.2,1.3c0.1,0,0.1,0,0.2-0.1
	c5.3-1.8-12.8-50.1-12.8-50.1s21-13.8,36.6-52.9s2.8-67.5,2.8-67.5s52.9-9.6,78.5-36.6c25.6-27,42.3-56.8,38.7-86.6
	c0,0,27.7,17,71.4,13.5c43.7-3.6,58.9-20.2,58.9-20.2s33,20.6,57.9,21c24.9,0.4,61.8-14.2,61.8-14.2s26.3,23.1,43,32.7
	c16.7,9.6,55.4,8.9,55.4,8.9s-1.1,31.2,9.9,48.7c11,17.4,37.6,23.4,37.6,23.4s1.1,25.9,12.1,46.5s37.6,31.6,37.6,31.6
	s-12.1,35.7-7.8,52.7c4.3,17,28.2,48.8-2.5,109.2c-36.3,49.9-57.3,54-65.2,61.4c0.1,2.2-0.1,6.3-0.5,9.8c1.8,2.9,2.1,1.9,12.4,2.7
	c13.7,1,88.7,13.7,139.5-27.1c7.5-6.1,12.5-14.8,13.9-24.4c0-0.1,0-0.2,0-0.3c1.4-10.7,43-12.4,45.5-71.7s-34.1-87.4-34.1-87.4
	s10.7-19.9,0-68.5s-44.7-47.9-44.7-47.9s35.2-35.9-15.3-118.3s-100.5-63.8-100.5-63.8s-4.3-51.9-74.9-82.8S589.1,42,589.1,42
	s-43-46.5-108-40.5s-88.4,54.7-88.4,54.7S324.1,49.5,271.9,85s-71.7,62.9-71.7,62.9S105,140,77,195.4S66,322.6,66,322.6
	S35.1,353.5,35.1,400S65.3,472.8,65.3,472.8z"/>
<path class="st6" d="M651.2,479.5l16.3,33.7c0,0,33.4-1.1,36.2,12.4s-28.1,17-28.1,17"/>
<path class="st6" d="M575.9,574.3c76-17,119.7,14.9,119.7,14.9s1.3-25-11.6-48"/>
<path class="st6" d="M568.1,542.7c0,0,22.4,33.7-9.6,56.1"/>
<path class="st6" d="M420,496.2c0,0,13.8-78.8,82-83.8c68.2-5,51.1,67.1,51.1,67.1S464.4,473.1,420,496.2z"/>
<path class="st6" d="M660.1,467.1c0,0-45.5-67.1,34.1-79.5s97.7,60,97.7,60S700.6,440.8,660.1,467.1z"/>
<path class="st6" d="M779,387.5c0,0,4.2,10-10,21.3"/>
<path class="st6" d="M794,401.8c0,0-2.7,12.6-13.4,21.4"/>
<path class="st6" d="M651.2,380.1c0,0,45.8-57.5,110.4-55.4"/>
<path class="st6" d="M551.1,398.2c0,0-62.9-51.9-142.8-24.9"/>
<path class="st7" d="M493.9,413.4c0,0,28.4,29.2,28.4,42.3c0,11.1-10.1,20.3-13.3,23c-0.6,0.5-1.4,0.8-2.1,0.8l-26,1.4
	c-0.8,0-1.5-0.2-2.2-0.6c-3.9-2.6-18.2-12.3-23.2-20c-1.6-2.5,0.3-5.8,3.3-5.6c5.9,0.3,15.5-0.3,18.4-7.5
	c4.3-10.6-2.7-27.9-2.7-27.9"/>
<path class="st7" d="M663.1,425.5c1.3-1.8,3.9-2,5.7-0.8c3.6,2.4,11.2,5.6,16.4-4.1c4.8-8.8,2.1-19.6-0.3-25.7
	c-1-2.6,0.6-5.5,3.4-5.9l13.5-2.4c1.3-0.2,2.7,0.1,3.7,1c5.5,4.7,22.2,21.2,19.8,44.4c-2.5,24.4-15.4,20.8-18.4,19.6
	c-0.4-0.2-0.9-0.3-1.4-0.3c-4.6-0.3-29.2-2.4-34.9-10.4C665.7,433.8,660.6,428.8,663.1,425.5z"/>
<path class="st8" d="M408.3,541.2c0,0,35.5-41.1,66.1-45"/>
<path class="st8" d="M429.3,542.7c0,0,27-28.4,36.2-30.2"/>
<path class="st8" d="M441.3,428.4c0,0,13.8-23.4,50.8-26.6"/>
<path class="st8" d="M750.3,468.5c0,0,51.8-7.1,63.6,7.8"/>
<path class="st8" d="M769.1,482.4c0,0,23.8-0.7,34.1,8.9"/>
<path class="st8" d="M700.2,373c0,0,47.9,3.2,52.9,13.1"/>
<path class="st6" d="M410.4,438.3c0,0,21.3,1,28.6,12.2"/>
<path class="st6" d="M404.8,452.5c0,0,18.1-1.4,26.6,11.3"/>
<path class="st8" d="M178,544.9c0,0-7.5-17.3,10.1-18.6s36,34.1,36,34.1"/>
<path class="st8" d="M201.7,564c0,0-7.4-19.5,9.7-22.8"/>
<circle class="st9" cx="230.5" cy="591.5" r="12.1"/>
<g>
	<path class="st10" d="M760.7,664.5c-0.1,0-0.1-0.1-0.1-0.1c0.2,0.1,0.4,0.2,0.5,0.2C760.9,664.6,760.7,664.5,760.7,664.5z"/>
	<path class="st10" d="M783.3,702c-0.5,5.6-5.1,10-10.5,10h-0.2c-11.7-0.3-17.9-14.6-18.1-15.2c-0.3-0.7,0-1.5,0.7-1.8
		c0.7-0.3,1.5,0,1.8,0.7c0.1,0.1,5.8,13.2,15.7,13.5c4,0.2,7.5-3.2,7.9-7.5c2.2-23.6-14.2-34.2-18.8-36.7c0.7,0.4,1.1,0.6,1.1,0.6
		s-0.1-1.2,0.1-3.1C767.6,665.1,785.7,676.8,783.3,702z"/>
</g>
<g>
	<path class="st10" d="M781.1,686.2c-0.7,0-1.3-0.5-1.4-1.2c-0.1-0.7,0.4-1.4,1.2-1.6c7.1-1.1,9.4-10.4,9.4-10.5
		c0.2-0.7,0.9-1.2,1.6-1c0.7,0.2,1.2,0.9,1,1.6c-0.1,0.5-2.7,11.3-11.6,12.6C781.3,686.2,781.2,686.2,781.1,686.2z"/>
</g>
<g>
	<path class="st10" d="M826.5,677.7c-1.2,22.1-19.3,24.4-19.5,24.4h-0.2c-0.7,0-1.3-0.5-1.4-1.2c-0.1-0.7,0.4-1.4,1.2-1.5
		c0.7-0.1,15.2-2.4,17.1-22.7h0C824,676.8,825,677,826.5,677.7z"/>
</g>
<g>
	<path class="st10" d="M844.3,704.5c0,0.1,0,0.1,0,0.2c-6.3,18-25,23.9-25.8,24.2c-0.1,0.1-0.3,0.1-0.4,0.1c-0.6,0-1.1-0.4-1.3-1
		c-0.2-0.7,0.2-1.5,0.9-1.7c0.2-0.1,17.7-5.6,23.8-21.7c-0.2,0.6-0.3,0.9-0.3,0.9S842.4,704.6,844.3,704.5z"/>
</g>
<g>
	<path class="st10" d="M751.2,740.4c-0.7,0-1.3-0.6-1.4-1.3c0-0.8,0.5-1.4,1.3-1.4c0.2,0,16.5-0.9,20.1-8.3c0.3-0.7,1.1-1,1.8-0.6
		c0.7,0.3,1,1.1,0.6,1.8C769.4,739.4,752,740.4,751.2,740.4C751.2,740.4,751.2,740.4,751.2,740.4z"/>
</g>
<g>
	<path class="st10" d="M172.1,855.5c-0.6,0-1.1,0-1.7-0.1c0,0-0.3,0.7-0.8,1.8c-0.1-0.2-0.2-0.5-0.2-0.7c1-14.2-7.9-25.8-8-25.9
		c-0.4-0.6-0.3-1.5,0.4-1.9c0.6-0.4,1.5-0.3,1.9,0.3C164,829.5,172.7,840.8,172.1,855.5z"/>
</g>
<g>
	<path class="st10" d="M157.5,834.4c-0.3,0-0.6-0.1-0.9-0.3c-0.6-0.5-0.6-1.4-0.1-1.9c0.3-0.3,6.7-7.6,12.7-5.7
		c0.7,0.2,1.1,1,0.9,1.7c-0.2,0.7-1,1.1-1.7,0.9c-3.6-1.1-8.3,3.2-9.9,4.9C158.3,834.2,157.9,834.4,157.5,834.4z"/>
</g>
<g>
	<path class="st10" d="M119,838.2c-6.9,3.8-6.2,16.7-6.2,16.8c0.1,0.7-0.5,1.3-1.2,1.4c-0.4-1.3-0.5-2-0.5-2s-0.4,0-1,0
		c0-3.1,0.3-14.5,7.7-18.6c0.7-0.4,1.5-0.1,1.9,0.5S119.7,837.9,119,838.2z"/>
</g>
<g>
	<path class="st10" d="M102.4,827.3c0.1,0.8-0.5,1.4-1.2,1.5c-3,0.3-5.7,10.2-6.7,17c-0.3,0.3-1.2,0.8-2.5,1.2
		c-0.2-0.3-0.4-0.7-0.3-1.1c0.4-3.2,2.9-19.2,9.2-19.8C101.6,826,102.3,826.6,102.4,827.3z"/>
</g>
<path class="st11" d="M159.4,314.4c0,0-54,72.2-35.5,139.8"/>
<path class="st11" d="M189.2,172.3c0,0-88.8,7.1-90.2,139.2"/>
<path class="st11" d="M359.7,93.5c0,0-68.2,16.3-105.8,87.4"/>
<path class="st11" d="M359.7,178c0,0-54.7,97.3-105.8,117.9"/>
<path class="st11" d="M439,87.1c0,0,70.5-51.1,142.9-6.4"/>
<path class="st11" d="M662.5,163.8c0,0,50.2,54.7,87.8,50.4"/>
<path class="st11" d="M786.1,150.3c0,0,72.1,23.4,77.8,123.6"/>
<path class="st11" d="M883.1,393.2c0,0-17,78.8,7.1,107.2"/>
</svg>
