<?xml version="1.0" encoding="utf-8"?>
<!-- Generator: Adobe Illustrator 25.2.0, SVG Export Plug-In . SVG Version: 6.00 Build 0)  -->
<svg version="1.1" id="Calque_1" xmlns="http://www.w3.org/2000/svg" xmlns:xlink="http://www.w3.org/1999/xlink" x="0px" y="0px"
	 viewBox="0 0 1000 1000" style="enable-background:new 0 0 1000 1000;" xml:space="preserve">
<style type="text/css">
	.st0{fill:#078A80;}
	.st1{fill:#EFCEAE;}
	.st2{fill:#6C5D4F;}
	.st3{fill:#EFCEAD;}
	.st4{fill:#6D5D50;}
	.st5{fill:none;}
	.st6{fill:#FEF1E9;}
	.st7{opacity:0.24;fill:#BFA48E;}
	.st8{opacity:0.24;}
	.st9{fill:#BFA48E;}
	.st10{fill:none;stroke:#6B5C4F;stroke-width:4;stroke-linecap:round;stroke-linejoin:round;stroke-miterlimit:10;}
	.st11{fill:#6B5C4F;}
	.st12{fill:none;stroke:#6B5C4F;stroke-width:2;stroke-linecap:round;stroke-linejoin:round;stroke-miterlimit:10;}
	.st13{fill:none;stroke:#6B5C4F;stroke-width:3;stroke-linecap:round;stroke-linejoin:round;stroke-miterlimit:10;}
	.st14{fill:none;stroke:#E7D7CE;stroke-width:3;stroke-linecap:round;stroke-miterlimit:10;}
</style>
<path class="st0" d="M836.4,774.7l-7.7,2.2l-71.2,18c-1.9,0.5-3.9-0.5-4.6-2.4c-4.6-11.9-22.9-52.6-58.9-51.1
	c-56.9,0.9-71.8,58.6-74,69c-0.2,1,0,2.1,0.5,2.9l74.8,117l4.5,7.1c3.4,5.3,3.1,12-0.3,16.9c-1.2,1.7-2.7,3.2-4.6,4.3
	c-11.8,6.8-29.7,13.4-51.3,19.3c-87.6,23.6-236.7,34.8-290.7,0.4c-14.9-9.5-23.8-20.7-28.5-32.6c-1.7-4.3-2.8-8.6-3.5-12.9
	c-0.2-1.1-0.3-2.3-0.5-3.4c-1.6-14.9,1.8-30.1,7-43.6c7.1-18.5,17.4-33.7,22.3-40.3c1.4-1.9,0.8-4.7-1.4-5.8L172,748.1
	c-2-1-2.7-3.5-1.6-5.4l26.8-45.6c1.1-1.8,3.3-2.5,5.2-1.5l197.8,104.2c1.4,0.7,3,0.6,4.2-0.3l18.2-13.6c7-5.3,15.8-7.8,24.6-6.9
	l4,0.4c1.8,0.2,3.3,1.6,3.5,3.4c0.1,0.7,0.4,1.5,0.9,2.3c0.1,0.1,0.1,0.1,0.2,0.2c1.5,2.2,4.7,4.6,11.5,6.8c0.7,0.2,1.4,0.5,2.2,0.7
	c2.5,0.7,5.4,1.3,8.7,1.9c0.3,0.1,0.6,0.1,0.9,0.2c4.2,0.7,9,1.3,14.7,1.8c18.5,1.6,28.7-1.1,34.4-5.1c4.1-2.8,5.8-6.3,6.4-9.2
	c0.8-3.5,3.4-6.3,6.9-6.9l18.6-3.2c1.2-0.2,2.2-0.9,2.7-1.9c6.8-12.3,53.7-91.6,128.1-98.7c70.9-6.8,133.4,76.7,147.6,97.2
	C840,770.9,838.9,773.9,836.4,774.7z"/>
<path class="st1" d="M743.5,826.9c2.2,10.6,11,18.4,21.8,19.1c1.1,0.1,2.3,0.1,3.6,0.1c0.6,0,1.3,0,1.9-0.1c0,0,0.3,0.7,0.9,2
	c3.3,6.7,15.5,28.3,35.4,24.6c19.1-3.6,25.9-19.5,27.9-25.4c0.4-1.4,0.6-2.2,0.6-2.2s0.4,0,1.1,0c2.2-0.1,7.5-0.6,11.3-2.4
	c4.9-2.5,5.5-7.1,5.5-7.1s0.1,0.1,0.2,0.1c0.4,0.3,1.3,0.9,2.7,1.3c3.5,1.1,10.1,1.2,19.1-6.9c13.8-12.5,5.7-34.4,5.7-34.4
	s-15.4-46.9-72.3-36.3c-56.9,10.6-63.9,51-63.9,51S741.5,817.1,743.5,826.9z"/>
<g>
	<path class="st2" d="M768.9,846c0.6,0,1.3,0,1.9-0.1c0,0,0.3,0.7,0.9,2c0.1-0.2,0.2-0.5,0.2-0.8c-1.1-15.5,8.6-28.1,8.7-28.2
		c0.4-0.7,0.3-1.6-0.4-2.1c-0.7-0.5-1.6-0.3-2.1,0.4C777.7,817.6,768.2,830,768.9,846z"/>
</g>
<g>
	<path class="st2" d="M784.8,823c0.3,0,0.7-0.1,1-0.4c0.6-0.5,0.7-1.5,0.1-2.1c-0.3-0.3-7.3-8.3-13.9-6.3c-0.8,0.2-1.2,1.1-1,1.9
		c0.2,0.8,1.1,1.2,1.9,1c3.9-1.2,9.1,3.5,10.8,5.4C784,822.8,784.4,823,784.8,823z"/>
</g>
<g>
	<path class="st2" d="M826.8,827.2c7.5,4.2,6.8,18.2,6.8,18.4c-0.1,0.8,0.5,1.5,1.3,1.6c0.4-1.4,0.6-2.2,0.6-2.2s0.4,0,1.1,0
		c0-3.4-0.3-15.9-8.4-20.3c-0.7-0.4-1.6-0.1-2,0.6S826.1,826.8,826.8,827.2z"/>
</g>
<g>
	<path class="st2" d="M844.9,815.3c-0.1,0.8,0.5,1.6,1.3,1.6c3.3,0.3,6.3,11.1,7.3,18.5c0.4,0.3,1.3,0.9,2.7,1.3
		c0.3-0.3,0.4-0.7,0.4-1.2c-0.5-3.5-3.1-20.9-10.1-21.6C845.8,813.9,845,814.5,844.9,815.3z"/>
</g>
<path class="st3" d="M178.7,748.9c-36.2,26.1-65.1-6.6-65.1-6.6s-26.8,12.4-41-9.9c-11.8-18.6,2.9-34.2,8.1-38.8
	c1-0.9,1.7-1.4,1.7-1.4s-0.3-0.4-0.6-1.5c0,0,0,0,0-0.1c-0.5-2.3-0.7-7.5,3.6-16.9c4.7-10.3,14.8-12,19.9-12.2c1.3-0.1,2.3,0,2.7,0
	c0.1,0,0.2,0,0.2,0s-1.5-22.8,22.3-27.9c18-3.8,30.1,4.9,34.9,9.5c-4.6,3.6-13.1,10.9-19.6,19.2c-0.7,0.8-1.3,1.7-1.9,2.5
	c-5.5,7.7-8.7,16-4.8,22.8c2.3,3.9,6.7,6.2,11.4,6.2c1.4,0,2.9-0.2,4.3-0.7c7.4-2.3,19.8-8.3,19.1-22.8c0-0.7-0.6-1.3-1.4-1.2
	c-0.7,0-1.3,0.7-1.2,1.4c0.6,12.1-9,17.7-17.2,20.2c-5,1.5-10.3-0.3-12.7-4.4c-3.3-5.6-0.5-12.8,4.5-19.7c0.3-0.4,0.5-0.7,0.8-1.1
	c6.5-8.7,16-16.7,20.6-20.5c0.3,0.4,0.5,0.6,0.5,0.6c14.7-1.5,22.8,6.6,29.9,15.5C204.8,669.8,214.9,722.8,178.7,748.9z"/>
<g>
	<path class="st4" d="M134.5,709.6c-0.4,0.7-1.1,1.5-2.1,2.4c-4.8,4.4-11,6.7-17.3,6.7c-4.8,0-9.6-1.3-13.8-4
		c-9-5.6-17.1-16.2-20.6-21.2c1-0.9,1.7-1.4,1.7-1.4s-0.3-0.4-0.6-1.5c2.6,3.8,11.3,16,20.8,22c8.9,5.5,20.4,4.6,28-2.5
		c0.8-0.7,1.4-1.4,1.7-1.9c0.4-0.6,1.2-0.8,1.8-0.4C134.7,708.2,134.9,709,134.5,709.6z"/>
</g>
<g>
	<path class="st4" d="M165.7,732.9c-0.1,0-0.2,0-0.2,0c-14.5-2.7-15.2-10-15.2-10.3c-0.1-0.7,0.5-1.3,1.2-1.4
		c0.7-0.1,1.3,0.5,1.4,1.2c0,0.1,0.9,5.7,13.1,8c0.7,0.1,1.2,0.8,1,1.5C166.9,732.5,166.4,732.9,165.7,732.9z"/>
</g>
<g>
	<path class="st4" d="M131.9,696.6c-0.2,0.5-0.7,0.9-1.2,0.9c-0.1,0-0.3,0-0.4-0.1c-16-5.5-22.7-27.2-24.9-36c1.3-0.1,2.3,0,2.7,0
		c2.3,8.8,8.8,28.7,23,33.5C131.7,695.2,132.1,695.9,131.9,696.6z"/>
</g>
<g>
	<path class="st4" d="M173.9,670.3c0.7,14.5-11.6,20.5-19.1,22.8c-1.4,0.4-2.9,0.7-4.3,0.7c-4.7,0-9.1-2.3-11.4-6.2
		c-3.9-6.7-0.7-15,4.8-22.8c0.6-0.9,1.2-1.7,1.9-2.5c6.5-8.3,15.1-15.5,19.6-19.2c0.8,0.8,1.5,1.4,1.8,1.9
		c-4.7,3.7-14.2,11.8-20.6,20.5c-0.3,0.4-0.5,0.7-0.8,1.1c-4.9,6.9-7.8,14.1-4.5,19.7c2.4,4.1,7.7,5.9,12.7,4.4
		c8.2-2.6,17.9-8.1,17.2-20.2c0-0.7,0.5-1.4,1.2-1.4C173.3,669,173.9,669.6,173.9,670.3z"/>
</g>
<g>
	<path class="st4" d="M145.8,662.2c-0.7,0.8-1.3,1.7-1.9,2.5c-1.7-6.6-9-12.1-9.1-12.1c-0.6-0.4-0.7-1.2-0.3-1.8
		c0.4-0.6,1.2-0.7,1.8-0.3C136.7,650.8,143.2,655.7,145.8,662.2z"/>
	<path class="st5" d="M146.6,665.4c-0.3,0.4-0.5,0.7-0.8,1.1"/>
</g>
<path class="st6" d="M477.6,878.4c-20.9-1.6-34-11.7-38.2-15.3c-0.8-0.7-0.9-2-0.2-2.8l10.4-14.5c0.4-0.5,1.1-0.7,1.7-0.7
	c7.9,0.1,23-8.9,28.2-13.1c1-0.8,2.4-0.5,3,0.6c12,20.5,25.9,20.4,29.9,20.6c0.7,0,1.3,0.5,1.7,1.1l7.4,17.6c0.6,1.1,0,2.5-1.3,2.8
	C514.3,876.3,498,880,477.6,878.4z M635.2,944.5c10.9,2.2,44.9,9,64.2,9.8c3.4-4.8,3.7-11.5,0.3-16.9l-4.5-7.1l-0.2,0
	c-0.1,0-0.2,0-0.4,0c-2.8-0.2-38.2-3.3-58.6-7.9c-6.7-1.5-12.1-6.3-14.4-12.7l-7.7-21c-1.1-2.9-3.4-5.2-6.4-6.1
	c-12.8-3.9-48-14-65.8-14.2c-0.6,0-1.1-0.3-1.5-0.7c-2.1-2.6-11.7-13.7-14.3-16.8c-0.5-0.7-0.6-1.6-0.1-2.3
	c2.1-3.3,10-11.1,8.7-29.3c-1.1-16.3-3.8-23.9-5.2-26.8c-0.3-0.6-0.8-1-1.5-1c-0.3-0.1-0.6-0.1-0.9,0.1c-4.8,1.6-20.6,6.2-43.1,3.8
	c-1.8-0.2-3.5-0.4-5.1-0.7c-0.3-0.1-0.7-0.1-0.9-0.2c-3.4-0.5-6.2-1.2-8.7-1.9c-0.8-0.2-1.5-0.4-2.2-0.7c-6.7-2.3-9.9-4.9-11.5-6.8
	c-0.1-0.1-0.1-0.1-0.2-0.2c-0.8-0.9-2.1-1.1-3-0.2c-6.2,6-26.3,26.8-24.7,42.4c0.7,7.3,4.5,10.8,5.6,12.4c1.1,1.5,1.1,3.5-0.1,4.9
	c-5,5.6-18.5,14.8-38,19.4c-22.7,5.3-51.9,14.3-68,22c-5.1,13.4-8.6,28.6-7,43.6c0.3,1.1,0.4,2.3,0.5,3.4c0.7,4.3,1.8,8.7,3.5,12.9
	c4.7,11.9,13.6,23.1,28.5,32.6c54,34.4,203.1,23.2,290.7-0.4l-10.6-30.7C632.4,945.6,633.7,944.2,635.2,944.5z"/>
<g>
	<path class="st1" d="M801.8,500.5c0,0.8-0.1,1.7-0.1,2.6c-0.5,7.7-3.3,17.3-11.1,27.5c-18.7,24.5-40.4,63.7-75.3,66.9
		c-33.7,3.1-28.7-4.2-28.4-4.7c-2.2,1.6-110,78.3-121.1,107.9c0,0-35.1,62-33,85.7c2.1,23.7-73.8,12.4-73.8,12.4l-4-14.7l3.5-51.7
		c0,0-23.1-22.3-54.9-32.1c-26.6-8.2-52.3-24-60-28.9c-1.3-0.8-2.1-1.4-2.3-1.5c0,0,0,0,0,0s-0.6,0.3-1.8,0.8
		c-9.6,4.1-56.7,22-101.9,1.9c-4.2-1.8-8.2-3.7-12-5.4c-0.1,0-0.1-0.1-0.2-0.1c-9.3-4.2-17.5-8.2-24.7-11.8
		c-0.1-0.1-0.2-0.1-0.3-0.1c-13.2-6.6-22.8-11.9-29-15.4c-9.3-5.3-14.2-16.3-11.2-26.5c0.2-0.6,0.4-1.3,0.7-2c0,0-0.8-0.4-2.4-1.1
		C142.2,602.4,46.2,554.3,50.5,501c4.7-58.3,49.6-89.8,49.6-89.8s8.4-117,24.1-134.3c15.7-17.2,117.9-60.1,117.9-60.1l106-45.1
		l204.7,85.1l179.5,95.6l66.5,104.2v27.6c-2.1-0.3-3.6-0.3-3.8-0.3l-0.1,2.6c0.1,0,2,0.1,4.6,0.5
		C800.5,489.2,801.8,494.1,801.8,500.5z"/>
</g>
<path class="st7" d="M820.6,276.7c0,0,30.7,159-21.9,201.6c0,0-24.6-7.6-43.6-1.4c-1.2,0.4-3.5,9.4-4.7,9.9c-0.5,0.2-1,0.4-1.5,0.7
	c-15.1,6.9-36.7,22.6-47.5,30.8c-4.8,3.6-9.7,2.8-15.2,0.3c-7-3.2-15.7-7.2-17.6-17.9c-0.7-3.9-2.7-12.5-3.7-22.8
	c-0.1-0.8-0.2-1.7-0.2-2.6c-3.7-40.9-8.6-113-8.6-113s-98.5,7.6-181.1-32.6c-82.6-40.3-153.8-110.9-153.8-110.9
	s-76.6,54.3-116.5,63.9c-29.9,7.2-60.8-2.9-75.2-4.4c-4-0.4-8.2,3.8-6.8,0c10.2-28.2,53.7-130.7,162.6-190.1
	c127.2-69.2,306.4-30.9,369,14.7c0,0,36.2-171.5,215.6-42.3C967.5,141.7,914.2,272.4,820.6,276.7z"/>
<g class="st8">
	<path class="st9" d="M338.7,669.5c-0.8,0.7-5.1,3.5-24,6.4c-0.3,0-0.5,0.1-0.8,0.2l-0.3,0.1c-27,5.1-55.7,1.2-80.8-11.1
		c-17.3-8.5-40.6-19.7-53-24.4c-19.3-7.3-16.4-27.9-16.2-28.8c0.2-1.4-0.8-2.8-2.2-3c-1.2-0.2-2.3,0.5-2.8,1.5
		c1.5,0.7,2.4,1.1,2.4,1.1c-0.3,0.7-0.5,1.3-0.7,2c-3,10.3,2,21.2,11.2,26.5c6.2,3.5,15.8,8.8,29,15.4c0.1,0,0.2,0.1,0.3,0.1
		c8.1,3.8,16.8,7.9,24.7,11.8c0.1,0,0.1,0.1,0.2,0.1c3.8,1.7,7.8,3.6,12,5.4c45.2,20.1,94,1.4,103.7-2.7
		C340.9,669,338.8,669.2,338.7,669.5z"/>
</g>
<path class="st6" d="M828.6,286.5c0,0,23.7,155.2-29.7,198.4c0,0-15.3-11.2-34.5-4.9c-1.2,0.4-2.4,0.8-3.6,1.4
	c-0.5,0.2-1,0.4-1.5,0.7c-15.3,7-37.2,23-48.2,31.3c-4.9,3.7-11.3,4.4-16.9,1.8c-7.1-3.3-15.6-9.4-17.6-20.3
	c-0.7-3.9-1.6-12.1-2.6-22.6c-0.1-0.9-0.2-1.7-0.2-2.6c-3.8-41.4-8.7-114.6-8.7-114.6s-100,7.8-183.7-33.1
	c-83.8-40.8-156-112.5-156-112.5s-77.7,55.1-118.2,64.9c-28.2,6.8-59.1,4.3-74.7,4c-1.9,0-3.8,0.2-5.6,0.6c-7.7,1.5-4.2-5.5-2.9-9
	c10.4-28.6,54.5-132.6,165-192.8C418,6.9,588.8,44.7,652.3,90.9c0,0,47.6-172.9,229.7-41.9C981,131.1,923.6,282.1,828.6,286.5z"/>
<path class="st10" d="M368.1,496.4c0,0-67.4,62.3-19.4,123.8"/>
<path class="st10" d="M332.1,581.8c0,0-80.1-65.7-127.5-59.9l37.7-35.1c0,0-4.2,0.1-9-0.8c-6.9-1.3-12.2-7-13.3-14
	c-1-6.1-1.2-12.7,5.6-14.7c3.7-1.1,7.8-0.1,10.9,2.2l7.8,5.7c0,0,21.3-15.2,25.8-30.9"/>
<path class="st10" d="M225.4,545.9c0,0-10.5,9.6-12.8-4c-0.5-3.2-0.4-6.5,0.3-9.8l2-10.4"/>
<path class="st10" d="M114.6,423.9c0,0,79.5-22,118.3,14.7c0,0,41.5-55-15.5-82.1C160.4,329.4,114.6,423.9,114.6,423.9z"/>
<path class="st10" d="M120.9,361.1c0,0,6.1,20,17.4,26.3"/>
<path class="st10" d="M134.1,349.4c0,0,2.7,17.2,15.3,25.7"/>
<line class="st10" x1="136.9" y1="300.3" x2="244.8" y2="351.6"/>
<path class="st10" d="M470,473c-22.1-27.7-86.4-22.9-101.3-21.4c-2.1,0.2-4.1-0.5-5.6-2c-9.1-9.3-35.9-43.6,40.2-64.5
	C503.2,379.3,470,473,470,473z"/>
<line class="st10" x1="484.7" y1="344.8" x2="368.1" y2="366.9"/>
<path class="st11" d="M416.5,384.9c0,0-25.6,8.3-19.3,40.5c6.3,32.2,31.9,27.7,31.9,27.7s28.3-19.4,26.1-31
	c-1.3-6.8-6.9-8.7-11.4-9.1c-4.5-0.4-8-4.2-8-8.7c-0.1-4.6,1.6-10.1,8.2-14.3"/>
<path class="st11" d="M207.8,353c0,0-34,12.1-33.2,40.7s21.6,26.6,21.6,26.6s37.2-7.1,44.8-20.8c5.7-10.3-5.9-12-12-12.2
	c-2.2-0.1-4.1-1.6-4.6-3.7c-1.2-4.8-2.3-13.1,2.7-16.8c7.3-5.3-18.5-15.3-18.5-15.3"/>
<path class="st12" d="M122.2,444.6c0,0,16-15.7,46.1-14.4"/>
<path class="st12" d="M169.5,438.6c0,0-32-2-40,12.2"/>
<path class="st12" d="M149.4,347.6c0,0,29.3-10.1,44.7-5.8"/>
<path class="st12" d="M400.3,469c0,0,43.8,2.3,52.4,12.9"/>
<path class="st12" d="M409.2,481.9c0,0,36.7,2.7,43.6,14.5"/>
<path class="st12" d="M414.2,368.9c0,0,44.1,9.4,49.9,20.8"/>
<circle class="st11" cx="253.4" cy="510.8" r="5.9"/>
<path class="st13" d="M720.2,552.6c0,0,34.7-74.2,46.6-21.8"/>
<path class="st13" d="M746.1,555.6c0,0-0.6-20.5-12.6-26.2"/>
<path class="st14" d="M310.6,159.2c0,0-53.4,62.1-111.5,70.9"/>
<path class="st14" d="M439.2,152.4c0,0,33.5,108.8,178.7,127"/>
<path class="st14" d="M517.3,128.1c0,0,43.9,59.4,83.8,69.6"/>
<path class="st14" d="M728,321.3c0,0,28.4,91.8,2.7,132"/>
<path class="st14" d="M785.4,97c0,0-56.1,27.7-50.7,55.4"/>
<path class="st14" d="M802.3,132.8c0,0-33.9,36.7-62.5,30.8"/>
<path class="st14" d="M654.4,92.3c0,0,25.7,8.8,29,16.9"/>
<g>
	<path class="st5" d="M764.5,480l-0.3,2.6l-4.9-0.5c0.5-0.2,1-0.5,1.5-0.7C762,480.9,763.2,480.4,764.5,480L764.5,480z"/>
	<path d="M764.4,480c-1.2,0.4-2.4,0.8-3.6,1.4c-0.5,0.2-1,0.4-1.5,0.7l-85.2-9.7l-122.5-14l0.3-2.6l122,13.9L764.4,480z"/>
</g>
<g>
	<path d="M442.1,509.3c-3.2,0-6.5-0.1-9.7-0.2c-33-1.6-63.6-11.5-86.2-27.7c-22.8-16.3-34.7-37.2-33.6-58.7
		c1.1-21.5,15-41.1,39.3-55.1c24.1-13.9,55.6-20.6,88.5-19c33,1.6,63.6,11.5,86.2,27.7c22.8,16.3,34.7,37.2,33.6,58.7
		c-1.1,21.5-15,41.1-39.3,55.1C499.2,502.6,471.5,509.3,442.1,509.3z M430.7,350.9c-28.9,0-56.2,6.6-77.5,18.9
		c-23.5,13.5-37,32.3-38,53c-1,20.6,10.5,40.7,32.6,56.5c22.2,15.9,52.3,25.6,84.8,27.2c32.5,1.6,63.4-5,87.1-18.6
		c23.5-13.5,37-32.3,38-53v0c1-20.6-10.5-40.7-32.6-56.5c-22.2-15.9-52.3-25.6-84.8-27.2C437.1,351,433.9,350.9,430.7,350.9z"/>
</g>
<g>
	<rect x="292.6" y="388.5" transform="matrix(0.1671 -0.9859 0.9859 0.1671 -159.3958 631.3038)" width="2.6" height="43"/>
</g>
<g>
	<path d="M175.3,471.4c-8.1,0-16.3-0.6-24.6-1.9c-61.6-9.6-106.2-52.8-99.4-96.3c3.3-21.2,18.1-39.2,41.6-50.8
		c23.4-11.5,52.6-15.3,82.4-10.7c61.6,9.6,106.2,52.8,99.4,96.3l-1.3-0.2l1.3,0.2c-3.3,21.2-18.1,39.2-41.6,50.8
		C216.3,467.1,196.3,471.4,175.3,471.4z M150.8,312.3c-20.6,0-40.1,4.2-56.7,12.4c-22.7,11.2-37,28.6-40.2,48.9
		c-6.6,42.1,37.1,84,97.2,93.4c29.2,4.5,57.9,0.8,80.8-10.5c22.7-11.2,37-28.6,40.2-48.9l0,0c6.6-42.1-37.1-84-97.2-93.4
		C166.8,312.9,158.8,312.3,150.8,312.3z"/>
</g>
<g>
	<path class="st1" d="M799.6,486.9c-2.7-0.4-4.6-0.5-4.6-0.5l0.1-2.6c0.2,0,1.7,0.1,3.8,0.3v1.1
		C798.9,485.3,799.2,485.8,799.6,486.9z"/>
	<path d="M819.8,499.9c-2.2,2.9-8.1,3.5-12.6,3.5c-2.6,0-4.7-0.2-5.5-0.3c-0.1,0-0.1,0-0.2,0l0.3-2.6h0c5.1,0.5,14,0.5,15.9-2.2
		c0.3-0.4,0.7-1.2,0-2.7c-2.6-5.7-12.2-7.9-18-8.7c-0.4-1.1-0.7-1.6-0.7-1.6v-1.1c6.2,0.8,17.9,3.2,21.1,10.4
		C821.1,497.1,820.5,498.9,819.8,499.9z"/>
</g>
</svg>
