<?xml version="1.0" encoding="utf-8"?>
<!-- Generator: Adobe Illustrator 25.2.1, SVG Export Plug-In . SVG Version: 6.00 Build 0)  -->
<svg version="1.1" id="Calque_1" xmlns="http://www.w3.org/2000/svg" xmlns:xlink="http://www.w3.org/1999/xlink" x="0px" y="0px"
	 viewBox="0 0 506 73" style="enable-background:new 0 0 506 73;" xml:space="preserve">
<style type="text/css">
	.st0{fill:#E6C27B;}
	.st1{fill:#F8D083;}
</style>
<path id="glacage_1_" class="st0" d="M258.2,0H0v15c0,0,14.1-8.7,20.6,5.7s10.8,32.7,12.4,37c1.1,3.2,9.7,19.9,22,14.5
	s22.5-47.1,32-55s11.1,31.9,26.7,41.9s18.7-49.5,26.4-40.3s11.1,34,26.3,19.3s14.6-35.7,23.7-23.5s8.7,57,29.7,42.3
	c19.1-13.4,10.4-33.8,17.3-31.8c1.5,0.4,2.5,1.6,3,2.9c2.2,7.2,9.5,19.3,12.9,18.6c5.3-1.3,9.1-8.3,12.2-17c0.5-1.4,2.6-1.6,3.4-0.3
	c5.7,9.2,7.5,27.3,19.6,36c0.8,0.6,1.7,1,2.7,1.1c13.3,1.9,16.2-40.1,25-51.8c9.2-12.2,7.2,18.2,22.5,32.9
	c15.3,14.7,19.9-19.4,27.6-28.7s13.8,57.8,29.5,47.7S409.5,9.3,419,17.2c9.5,7.9,19.3,33.6,31.5,39s23.5-12.7,24.6-15.9
	c1.6-4.3,3.8-5.2,10.3-19.6C491.9,6.3,506,15,506,15V0L258.2,0"/>
<path id="glacage_3_" class="st1" d="M258.2,0H0v8.3c0,0,14.1-9,20.6,5.9S31.4,48.2,33,52.6c1.1,3.3,9.7,20.6,22,15
	c12.2-5.7,22.5-48.8,32-57s11.1,33,26.7,43.4s18.7-51.3,26.4-41.7s11.1,35.2,26.3,20s14.6-37,23.7-24.3s8.7,59,29.7,43.8
	c19.1-13.9,10.4-35,17.3-32.9c1.5,0.4,2.5,1.6,3,3c2.2,7.5,9.5,20,12.9,19.3c5.3-1.3,9.1-8.6,12.2-17.6c0.5-1.5,2.6-1.7,3.4-0.3
	c5.7,9.5,7.5,28.3,19.6,37.3c0.8,0.6,1.7,1,2.7,1.1c13.3,1.9,16.2-41.5,25-53.7c9.2-12.7,7.2,18.8,22.5,34
	c15.3,15.2,19.9-20.1,27.6-29.7s13.8,59.9,29.5,49.4S409.5,2.4,419,10.6c9.5,8.2,19.3,34.8,31.5,40.4s23.5-13.2,24.6-16.5
	c1.6-4.4,3.8-5.4,10.3-20.3c6.5-15,20.6-5.9,20.6-5.9V0L258.2,0"/>
</svg>
