<?xml version="1.0" encoding="utf-8"?>
<!-- Generator: Adobe Illustrator 25.2.1, SVG Export Plug-In . SVG Version: 6.00 Build 0)  -->
<svg version="1.1" id="Calque_1" xmlns="http://www.w3.org/2000/svg" xmlns:xlink="http://www.w3.org/1999/xlink" x="0px" y="0px"
	 viewBox="0 0 113.4 93.5" style="enable-background:new 0 0 113.4 93.5;" xml:space="preserve">
<style type="text/css">
	.st0{fill:#F4A09E;}
	.st1{fill:#F7C4DC;}
	.st2{fill:#FDD597;}
	.st3{fill:#FFFFFF;}
	.st4{fill:#E53370;}
	.st5{fill:#EF7871;}
</style>
<path class="st0" d="M104,93.5H9.3c-5.2,0-9.3-4.2-9.3-9.3V9.3C0,4.2,4.2,0,9.3,0H104c5.2,0,9.3,4.2,9.3,9.3v74.9
	C113.4,89.4,109.2,93.5,104,93.5z"/>
<path class="st1" d="M65.3,35.8V74c0,0.4-0.1,0.7-0.2,1.1c-0.2,0.4-0.5,0.8-1,1.1c-0.4,0.2-0.8,0.4-1.3,0.4H40.5
	c-0.5,0-0.9-0.1-1.3-0.4c0,0-0.1,0-0.1-0.1c-0.4-0.3-0.7-0.6-0.9-1c0-0.1-0.1-0.1-0.1-0.2c-0.1-0.3-0.2-0.6-0.2-0.9V35.8
	c0-1.2,0.8-2.1,1.9-2.4c0.2-0.1,0.4-0.1,0.6-0.1h22.3c0.2,0,0.4,0,0.6,0.1C64.5,33.7,65.3,34.7,65.3,35.8z"/>
<path class="st1" d="M79,44.9v38.2c0,0.4-0.1,0.7-0.2,1.1c-0.2,0.4-0.5,0.8-1,1.1c-0.4,0.2-0.8,0.4-1.3,0.4H54.2
	c-0.5,0-0.9-0.1-1.3-0.4c0,0-0.1,0-0.1-0.1c-0.4-0.3-0.7-0.6-0.9-1c0-0.1-0.1-0.1-0.1-0.2c-0.1-0.3-0.2-0.6-0.2-0.9V44.9
	c0-1.2,0.8-2.1,1.9-2.4c0.2-0.1,0.4-0.1,0.6-0.1h22.3c0.2,0,0.4,0,0.6,0.1C78.2,42.7,79,43.7,79,44.9z"/>
<circle class="st2" cx="58.6" cy="11.6" r="9.2"/>
<g>
	<path class="st3" d="M62.4,17.2c-0.2,0.2-0.5,0.3-0.9,0.3c-0.1,0-0.2,0-0.3,0c-0.1,0-0.2,0-0.3,0l-5.1,0c-0.2,0-0.5,0-0.7-0.1
		c-0.1-0.1-0.2-0.1-0.3-0.2l0,0l0,0c0,0,0,0,0,0c-0.1-0.2-0.2-0.4-0.3-0.6c-0.1-0.4-0.1-0.8,0-1.2l0,0l0.1-0.3l0,0l0,0
		c0.1-0.4,0.3-0.7,0.6-0.9c0.3-0.2,0.5-0.4,0.8-0.7c0.9-0.8,1.8-1.6,2.7-2.4c0.3-0.3,0.6-0.6,0.8-1.1c0.2-0.4,0.1-0.9-0.1-1.2
		c-0.2-0.2-0.5-0.4-0.8-0.5c-0.5-0.1-1.2-0.1-1.7,0.1c-0.1,0-0.2,0.1-0.3,0.1c-0.2,0.1-0.4,0.2-0.5,0.2c-0.3,0.1-0.6,0-0.8-0.2
		c-0.2-0.2-0.4-0.5-0.4-0.8c0-0.1,0-0.1,0-0.2c0-0.4,0.3-0.8,0.6-1.1c0.2-0.1,0.3-0.2,0.5-0.3v0l0,0c0,0,0,0,0,0l0.2-0.1l0,0
		C56.3,6.1,56.5,6,56.7,6c0,0,0.1,0,0.1,0l0,0l0.2,0l0,0l0,0c0.7-0.1,1.3-0.1,2-0.1c1.2,0.2,2.2,0.7,2.9,1.4
		c0.6,0.7,0.8,1.6,0.6,2.6l0,0l0,0l0,0.2l0,0c-0.1,0.3-0.2,0.6-0.3,0.9c-0.1,0.2-0.2,0.3-0.3,0.5l0,0l-0.1,0.2l0,0h0
		c-0.3,0.5-0.7,0.9-1.2,1.3c-0.3,0.2-0.5,0.4-0.8,0.5c-0.2,0.1-0.3,0.2-0.5,0.3c0,0-0.1,0-0.1,0.1c-0.7,0.4-1,0.7-1,0.9
		c0,0,0,0,0.1,0C58.6,15,59,15,59.5,15h0c0.3,0,0.6,0,1,0h0l0.1,0c0.1,0,0.2,0,0.3,0l0.1,0c0.5,0,1,0,1.4,0.2
		c0.2,0.1,0.3,0.3,0.3,0.6C62.8,16.4,62.6,16.9,62.4,17.2z"/>
</g>
<path class="st4" d="M49.2,34.8c-0.2,1-0.8,1.8-1.5,2.5c-0.7,0.6-4,3.3-4.3,3.7c-0.3,0.4-1.5,1.5-2.2,3.1c-0.5,1-1.1,2-1.9,2.7
	c-0.4,0.4-0.9,0.8-1.2,1.1V34.9c0-1,0.8-1.8,1.8-1.8h9.4C49.3,33.6,49.3,34.3,49.2,34.8z"/>
<path class="st5" d="M55.8,62.2l17.9,19.4c0.6,0.6,0.5,1.6-0.1,2.1c-0.6,0.5-1.5,0.5-2.1,0L52.7,65.2c-0.9-0.8-0.9-2.2,0-3.1
	C53.5,61.3,54.9,61.3,55.8,62.2C55.8,62.2,55.8,62.2,55.8,62.2z"/>
<path class="st5" d="M37,43.7l18.8,18.5c0.9,0.8,0.9,2.2,0,3.1c-0.8,0.9-2.2,0.9-3.1,0c0,0,0-0.1-0.1-0.1L34.8,45.9
	c-0.6-0.6-0.5-1.6,0.1-2.2C35.5,43.1,36.5,43.2,37,43.7z"/>
<path class="st5" d="M52.7,62.2l19-18.3c0.5-0.5,1.3-0.5,1.8,0c0.5,0.5,0.5,1.2,0,1.7L55.8,65.2c-0.8,0.9-2.2,1-3.1,0.2
	c-0.9-0.8-1-2.2-0.2-3.1C52.7,62.3,52.7,62.2,52.7,62.2z"/>
<path class="st5" d="M34.9,81.6l17.8-19.4c0.8-0.9,2.2-0.9,3.1-0.1c0.9,0.8,0.9,2.2,0.1,3.1c0,0-0.1,0.1-0.1,0.1L37,83.6
	c-0.6,0.6-1.5,0.5-2,0C34.4,83.1,34.4,82.2,34.9,81.6z"/>
<path class="st4" d="M63.3,44.1c-0.2,1-0.8,1.8-1.5,2.5c-0.7,0.6-4,3.3-4.3,3.7c-0.3,0.4-1.5,1.5-2.2,3.1c-0.5,1-1.1,2-1.9,2.7
	c-0.4,0.4-0.9,0.8-1.2,1.1V44.2c0-1,0.8-1.8,1.8-1.8h9.4C63.4,42.9,63.4,43.6,63.3,44.1z"/>
</svg>
