<?xml version="1.0" encoding="utf-8"?>
<!-- Generator: Adobe Illustrator 25.2.1, SVG Export Plug-In . SVG Version: 6.00 Build 0)  -->
<svg version="1.1" id="Calque_1" xmlns="http://www.w3.org/2000/svg" xmlns:xlink="http://www.w3.org/1999/xlink" x="0px" y="0px"
	 viewBox="0 0 113.4 93.5" style="enable-background:new 0 0 113.4 93.5;" xml:space="preserve">
<style type="text/css">
	.st0{fill:#F4A09E;}
	.st1{fill:#D5B4D4;}
	.st2{fill:#EE779D;}
	.st3{fill:#FACEB8;}
	.st4{fill:#F59C3B;}
	.st5{fill:#FEE9CC;}
	.st6{fill:#B58549;}
	.st7{fill:#CEDCF2;}
	.st8{fill:#5382C2;}
	.st9{fill:#EF7B74;}
	.st10{fill:#FDD597;}
	.st11{fill:#FFFFFF;}
</style>
<path class="st0" d="M104,93.5H9.3c-5.2,0-9.3-4.2-9.3-9.3V9.3C0,4.2,4.2,0,9.3,0H104c5.2,0,9.3,4.2,9.3,9.3v74.9
	C113.4,89.4,109.2,93.5,104,93.5z"/>
<path class="st1" d="M43.9,38.6v38.7c0,1.1-0.9,2-2,2H15.1c-1.1,0-2-0.9-2-2V38.6c0-1.1,0.9-2,2-2H42C43.1,36.7,43.9,37.5,43.9,38.6
	z"/>
<path class="st2" d="M25.1,38.5c-0.2,1-0.8,1.9-1.6,2.6c-0.8,0.7-4.3,3.5-4.6,3.9c-0.3,0.4-1.6,1.6-2.3,3.3
	c-0.5,1.1-1.2,2.1-2.1,2.9c-0.5,0.4-0.9,0.8-1.3,1.1V38.6c0-1.1,0.9-2,1.9-2h10.1C25.2,37.2,25.2,37.9,25.1,38.5z"/>
<path class="st3" d="M50.3,31.8v38.7c0,1.1-0.9,2-2,2H21.4c-1.1,0-2-0.9-2-2V31.8c0-1.1,0.9-2,2-2h26.9
	C49.4,29.9,50.3,30.7,50.3,31.8z"/>
<path class="st4" d="M31.4,31.7c-0.2,1-0.8,1.9-1.6,2.6c-0.8,0.7-4.3,3.5-4.6,3.9c-0.3,0.4-1.6,1.6-2.3,3.3
	c-0.5,1.1-1.2,2.1-2.1,2.9c-0.5,0.4-0.9,0.8-1.3,1.1V31.8c0-1.1,0.9-2,1.9-2h10.1C31.5,30.4,31.5,31.1,31.4,31.7z"/>
<path class="st5" d="M93.8,38.6v38.7c0,1.1-0.9,2-2,2H64.9c-1.1,0-2-0.9-2-2V38.6c0-1.1,0.9-2,2-2h26.9
	C92.9,36.7,93.8,37.5,93.8,38.6z"/>
<path class="st6" d="M74.9,38.5c-0.2,1-0.8,1.9-1.6,2.6c-0.8,0.7-4.3,3.5-4.6,3.9c-0.3,0.4-1.6,1.6-2.3,3.3
	c-0.5,1.1-1.2,2.1-2.1,2.9c-0.5,0.4-0.9,0.8-1.3,1.1V38.6c0-1.1,0.9-2,1.9-2H75C75,37.2,75,37.9,74.9,38.5z"/>
<path class="st7" d="M103.2,29.1v38.7c0,1.1-0.9,2-2,2H74.3c-1.1,0-2-0.9-2-2V29.1c0-1.1,0.9-2,2-2h26.9
	C102.3,27.2,103.2,28,103.2,29.1z"/>
<path class="st8" d="M84.3,29c-0.2,1-0.8,1.9-1.6,2.6c-0.8,0.7-4.3,3.5-4.6,3.9c-0.3,0.4-1.6,1.6-2.3,3.3c-0.5,1.1-1.2,2.1-2.1,2.9
	c-0.5,0.4-0.9,0.8-1.3,1.1V29.1c0-1.1,0.9-2,1.9-2h10.1C84.4,27.7,84.4,28.4,84.3,29z"/>
<path class="st9" d="M89.1,38.6c-0.1-0.7-0.7-0.7-0.7,0c-0.5,5-1.2,13.4-1.1,17.5c0.2,6,3.1,4.7,3-0.1
	C90.2,52.7,89.5,43.8,89.1,38.6z"/>
<path class="st9" d="M82,52.8c-2.4,0.9,5.3,8.6,6.9,8.6c1.4,0,9.7-7.1,7.8-7.9c-1.5-0.6-6.1,4.1-7.9,4.9C87.2,57.7,83,52.4,82,52.8z
	"/>
<path class="st9" d="M34.7,62.3c-0.1,0.7-0.7,0.7-0.7,0c-0.5-5-1.2-13.4-1.1-17.5c0.2-6,3.1-4.7,3,0.1
	C35.8,48.2,35.1,57.1,34.7,62.3z"/>
<path class="st9" d="M27.6,48c-2.4-0.9,5.3-8.6,6.9-8.6c1.4,0,9.7,7.1,7.8,7.9c-1.5,0.6-6.1-4.1-7.9-4.9
	C32.9,43.2,28.7,48.4,27.6,48z"/>
<circle class="st10" cx="57.8" cy="12.1" r="9.2"/>
<g>
	<path class="st11" d="M61.3,15.6c-0.1,0-0.3,0-0.4,0c-0.3,0-0.6,0-0.7,0.2c-0.1,0.1-0.1,0.2,0,0.3c0,0.1,0,0.1,0,0.2
		c0.1,0.5,0.3,1.3-0.1,1.7c-0.3,0.2-0.8,0.3-1.2,0.3c-0.3,0-0.5,0-0.6,0c-0.5-0.1-0.9-0.3-1.1-0.7c-0.1-0.1-0.1-0.3-0.1-0.4l0,0v0
		v-0.2l0,0c0-0.1,0-0.1,0-0.2c0-0.2,0-0.3,0-0.5c0,0,0-0.1,0-0.1l0,0v0c0-0.1-0.1-0.3-0.2-0.4c-0.3-0.2-0.9-0.1-1.4-0.1
		c-0.2,0-0.3,0-0.4,0c-0.7,0-1.4,0.1-2.1,0l0,0l0,0l-0.3,0l0,0c-0.3,0-0.6-0.1-0.8-0.3c-0.3-0.2-0.5-0.6-0.6-1c0,0,0,0,0,0l0,0
		c0,0,0-0.1,0-0.1c0-0.4,0-0.8,0.2-1.2c0.5-1.5,1.7-2.7,2.8-3.9c0.3-0.3,0.5-0.7,0.8-1.1c0.2-0.3,0.3-0.6,0.6-0.9
		c0.2-0.3,0.5-0.5,0.7-0.7C56.6,6.2,56.8,6.1,57,6c0.3-0.1,0.6-0.2,1-0.1l0,0l0,0c0.2,0,0.3,0,0.5,0.1c0.4,0.1,1,0.3,1.3,0.8
		C59.9,6.8,60,6.9,60,7c0,0,0,0,0,0l0,0l0,0c0.2,0.5,0.2,1.1,0.1,1.7c0,0.2,0,0.4,0,0.5c0,0.7,0,1.5,0,2.2c0,0.1,0,0.1,0,0.2
		c0,0.2,0,0.4,0,0.6c0,0.4,0.1,0.6,0.3,0.7c0.1,0.1,0.2,0.1,0.4,0.1l0.1,0c0.2,0,0.3,0,0.5,0c0.4,0.1,0.6,0.5,0.6,0.8
		C62.2,14.8,61.9,15.4,61.3,15.6z M57.2,12.5c0-0.6,0-1.1,0-1.7c0,0,0-0.1,0-0.2c0.1-0.9,0-1.2,0-1.3c0,0,0,0,0,0
		c-0.1,0-0.2,0.1-0.3,0.2c-0.3,0.5-0.7,1-1,1.5c-0.2,0.3-0.4,0.7-0.6,1L55,12.7c-0.1,0.1-0.1,0.2-0.1,0.3c0,0.1,0.1,0.2,0.4,0.2
		c0.5,0,1,0,1.6-0.1c0.2,0,0.3,0,0.4-0.2C57.2,12.8,57.2,12.6,57.2,12.5z"/>
</g>
</svg>
