<?xml version="1.0" encoding="utf-8"?>
<!-- Generator: Adobe Illustrator 25.2.1, SVG Export Plug-In . SVG Version: 6.00 Build 0)  -->
<svg version="1.1" id="Calque_1" xmlns="http://www.w3.org/2000/svg" xmlns:xlink="http://www.w3.org/1999/xlink" x="0px" y="0px"
	 viewBox="0 0 113.4 93.5" style="enable-background:new 0 0 113.4 93.5;" xml:space="preserve">
<style type="text/css">
	.st0{fill:#F4A09E;}
	.st1{fill:#FACEB8;}
	.st2{fill:#F59C3B;}
	.st3{fill:#CEDCF2;}
	.st4{fill:#5382C2;}
	.st5{fill:#FEE9CC;}
	.st6{fill:#B58549;}
	.st7{fill:#EF7B74;}
	.st8{fill:#FDD597;}
	.st9{fill:#FFFFFF;}
</style>
<path class="st0" d="M104,93.5H9.3c-5.2,0-9.3-4.2-9.3-9.3V9.3C0,4.2,4.2,0,9.3,0H104c5.2,0,9.3,4.2,9.3,9.3v74.9
	C113.4,89.4,109.2,93.5,104,93.5z"/>
<path class="st1" d="M106.7,41.5v38.7c0,1.1-0.9,2-2,2H77.8c-1.1,0-2-0.9-2-2V41.5c0-1.1,0.9-2,2-2h26.9
	C105.8,39.6,106.7,40.4,106.7,41.5z"/>
<path class="st2" d="M87.8,41.4c-0.2,1-0.8,1.9-1.6,2.6c-0.8,0.7-4.3,3.5-4.6,3.9c-0.3,0.4-1.6,1.6-2.3,3.3
	c-0.5,1.1-1.2,2.1-2.1,2.9c-0.5,0.4-0.9,0.8-1.3,1.1V41.5c0-1.1,0.9-2,1.9-2h10.1C87.9,40.1,87.9,40.8,87.8,41.4z"/>
<path class="st3" d="M73,31v38.7c0,1.1-0.9,2-2,2H44.1c-1.1,0-2-0.9-2-2V31c0-1.1,0.9-2,2-2h26.9C72.2,29.1,73,29.9,73,31z"/>
<path class="st4" d="M54.1,30.9c-0.2,1-0.8,1.9-1.6,2.6c-0.8,0.7-4.3,3.5-4.6,3.9c-0.3,0.4-1.6,1.6-2.3,3.3
	c-0.5,1.1-1.2,2.1-2.1,2.9c-0.5,0.4-0.9,0.8-1.3,1.1V31c0-1.1,0.9-2,1.9-2h10.1C54.3,29.6,54.3,30.3,54.1,30.9z"/>
<path class="st5" d="M39.4,41.5v38.7c0,1.1-0.9,2-2,2H10.5c-1.1,0-2-0.9-2-2V41.5c0-1.1,0.9-2,2-2h26.9
	C38.5,39.6,39.4,40.4,39.4,41.5z"/>
<path class="st6" d="M20.5,41.4c-0.2,1-0.8,1.9-1.6,2.6c-0.8,0.7-4.3,3.5-4.6,3.9c-0.3,0.4-1.6,1.6-2.3,3.3
	c-0.5,1.1-1.2,2.1-2.1,2.9c-0.5,0.4-0.9,0.8-1.3,1.1V41.5c0-1.1,0.9-2,1.9-2h10.1C20.6,40.1,20.6,40.8,20.5,41.4z"/>
<path class="st7" d="M57.9,61.5c-0.1,0.7-0.7,0.7-0.7,0c-0.5-5-1.2-13.4-1.1-17.5c0.2-6,3.1-4.7,3,0.1
	C59.1,47.4,58.4,56.3,57.9,61.5z"/>
<path class="st7" d="M50.8,47.2c-2.4-0.9,5.3-8.6,6.9-8.6c1.4,0,9.7,7.1,7.8,7.9c-1.5,0.6-6.1-4.1-7.9-4.9
	C56.1,42.4,51.9,47.6,50.8,47.2z"/>
<path class="st7" d="M91.9,49.8c-0.1-0.7-0.7-0.7-0.7,0c-0.5,5-1.2,13.4-1.1,17.5c0.2,6,3.1,4.7,3-0.1C93,63.9,92.3,55,91.9,49.8z"
	/>
<path class="st7" d="M84.8,64.1c-2.4,0.9,5.3,8.6,6.9,8.6c1.4,0,9.7-7.1,7.8-7.9c-1.5-0.6-6.1,4.1-7.9,4.9
	C90,68.9,85.8,63.6,84.8,64.1z"/>
<path class="st7" d="M23.9,50.5c-0.1-0.7-0.7-0.7-0.7,0c-0.5,5-1.2,13.4-1.1,17.5c0.2,6,3.1,4.7,3-0.1C25,64.6,24.3,55.7,23.9,50.5z
	"/>
<path class="st7" d="M16.8,64.7c-2.4,0.9,5.3,8.6,6.9,8.6c1.4,0,9.7-7.1,7.8-7.9c-1.5-0.6-6.1,4.1-7.9,4.9
	C22,69.5,17.8,64.3,16.8,64.7z"/>
<circle class="st8" cx="57.6" cy="12.1" r="9.2"/>
<g>
	<path class="st9" d="M61.2,16.3L61,16.4c0,0,0,0,0,0l0,0l0,0c-0.4,0.6-1,1-1.7,1.3c-0.8,0.3-1.7,0.4-2.4,0.4c-0.3,0-0.6,0-0.8,0
		c-0.1,0-0.3,0-0.4,0l0,0l0,0l-0.2,0l0,0c-0.5-0.1-1.1-0.2-1.5-0.5l0,0l-0.2-0.1l0,0v0c-0.3-0.3-0.6-0.6-0.6-0.9
		c-0.1-0.3,0-0.6,0.1-1c0.1-0.2,0.2-0.3,0.3-0.4c0.2-0.1,0.4-0.2,0.6-0.1c0.3,0,0.6,0.2,0.9,0.3c0.2,0.1,0.5,0.2,0.7,0.2
		c0.7,0.2,1.3,0.2,1.9,0c0.3-0.1,0.6-0.2,0.8-0.4c0.2-0.2,0.3-0.5,0.3-0.9c0-0.3-0.2-0.6-0.4-0.8c-0.4-0.3-1-0.4-1.5-0.4
		c-0.1,0-0.2,0-0.3,0c-0.5,0-1,0.1-1.3-0.2c-0.1-0.1-0.2-0.3-0.2-0.5c0-0.3-0.1-0.5,0-0.8c0-0.2,0.1-0.4,0.2-0.6
		c0-0.1,0.1-0.1,0.2-0.2l0,0l0,0c0.1-0.1,0.3-0.1,0.4-0.1c0.2,0,0.4,0,0.6,0c0.1,0,0.1,0,0.2,0c0.1,0,0.1,0,0.2,0
		c0.2,0,0.5,0,0.7-0.1c0.4-0.1,0.9-0.2,1-0.7c0.1-0.3,0-0.7-0.2-1c-0.2-0.2-0.4-0.3-0.7-0.4c-0.5-0.1-1-0.1-1.7,0
		c-0.2,0-0.4,0.1-0.5,0.1c-0.3,0.1-0.7,0.2-1.1,0.2c-0.1,0-0.2,0-0.2,0c-0.1,0-0.2-0.1-0.2-0.2c-0.2-0.3-0.3-0.7-0.2-1.1
		c0.1-0.6,0.6-1,1.5-1.3C55.3,6.1,55.9,6,56.6,6l0,0l0.1,0c0,0,0.1,0,0.1,0c0.5,0,0.9,0,1.4,0.1l0,0l0.3,0.1c0,0,0.1,0,0.1,0
		c0.7,0.2,1.4,0.5,1.8,1c0.1,0.1,0.1,0.1,0.2,0.2h0l0,0c0,0,0,0,0,0l0.1,0.1l0,0c0.2,0.3,0.4,0.6,0.5,0.9l0,0l0,0.2c0,0,0,0,0,0
		l0,0.1l0,0c0,0.1,0.1,0.3,0.1,0.4c0.1,1-0.4,1.9-1.3,2.7c0,0-0.1,0-0.1,0.1c0,0,0,0,0,0.1c0,0,0.1,0.1,0.2,0.1c0,0,0.1,0,0.1,0.1
		c0.2,0.1,0.4,0.4,0.6,0.6c0.4,0.4,0.6,0.9,0.7,1.5c0,0.2,0,0.3,0,0.5l0,0v0l0,0.2l0,0C61.5,15.4,61.4,15.8,61.2,16.3L61.2,16.3z"/>
</g>
</svg>
