<?xml version="1.0" encoding="utf-8"?>
<!-- Generator: Adobe Illustrator 25.2.1, SVG Export Plug-In . SVG Version: 6.00 Build 0)  -->
<svg version="1.1" id="Calque_1" xmlns="http://www.w3.org/2000/svg" xmlns:xlink="http://www.w3.org/1999/xlink" x="0px" y="0px"
	 viewBox="0 0 113.4 93.5" style="enable-background:new 0 0 113.4 93.5;" xml:space="preserve">
<style type="text/css">
	.st0{fill:#F4A09E;}
	.st1{fill:#FFDF86;}
	.st2{fill:#EF7871;}
	.st3{fill:#FDD597;}
	.st4{fill:#FFFFFF;}
	.st5{fill:#FFD137;}
</style>
<path class="st0" d="M104,93.5H9.3c-5.2,0-9.3-4.2-9.3-9.3V9.3C0,4.2,4.2,0,9.3,0H104c5.2,0,9.3,4.2,9.3,9.3v74.9
	C113.4,89.4,109.2,93.5,104,93.5z"/>
<path class="st1" d="M69.9,39.6v38c0,0.4-0.1,0.7-0.2,1c-0.2,0.4-0.5,0.8-1,1.1c-0.4,0.2-0.8,0.4-1.3,0.4H45.3
	c-0.5,0-0.9-0.1-1.3-0.4c0,0-0.1,0-0.1-0.1c-0.4-0.3-0.7-0.6-0.9-1c0-0.1-0.1-0.1-0.1-0.2c-0.1-0.3-0.2-0.6-0.2-0.9v-38
	c0-1.2,0.8-2.1,1.9-2.4c0.2-0.1,0.4-0.1,0.6-0.1h22.2c0.2,0,0.4,0,0.6,0.1C69.1,37.4,69.9,38.4,69.9,39.6z"/>
<path class="st2" d="M33.1,60.8l14.4,15l-4.1-0.2l30.3-29.6c0.5-0.5,1.2-0.4,1.7,0c0.4,0.4,0.4,1.1,0,1.6L47.4,79.5l-0.1,0.1
	c-0.9,1.1-2.6,1.2-3.7,0.2c-0.2-0.1-0.3-0.3-0.4-0.5L31.3,62.2c-0.4-0.5-0.2-1.2,0.3-1.6C32.1,60.3,32.7,60.4,33.1,60.8z"/>
<circle class="st3" cx="56.9" cy="11.4" r="9.6"/>
<g>
	<path class="st4" d="M58.8,16.5l0,0.2l0,0h0c0,0.2-0.1,0.4-0.2,0.5c-0.2,0.2-0.4,0.2-0.7,0.2c-0.2,0-0.4,0-0.7,0
		c-0.3,0-0.6,0-0.9-0.2c-0.7-0.3-0.7-0.9-0.7-1.3l0-2.8v0l0-1l0-2c0-0.2,0-0.3,0-0.5c0-0.4,0-0.7-0.1-1.1c0-0.1-0.1-0.2-0.1-0.2
		c0,0-0.1,0-0.1,0.1l0,0C55,8.8,54.3,9,54,9c-0.1,0-0.1,0-0.2,0c-0.4-0.1-0.8-0.4-0.9-0.8C52.7,7.8,52.7,7.3,53,7
		c0.3-0.4,0.8-0.7,1.3-0.9c0.8-0.3,1.4-0.6,2-0.7c0.2,0,0.4-0.1,0.6-0.1l0,0l0,0l0.3,0l0,0c0.3,0,0.5,0.1,0.7,0.2
		c0.3,0.2,0.6,0.5,0.7,0.9l0-0.1l0.1,0.4l0,0l0,0c0,0.3,0,0.6,0,0.9c0,0.1,0,0.2,0,0.3c0,1.3,0,2.6,0,3.9c0,1.2,0,2.5,0,3.7l0,0.2v0
		L58.8,16.5C58.8,16.5,58.8,16.5,58.8,16.5L58.8,16.5z"/>
</g>
<path class="st5" d="M54,38.5c-0.2,1-0.8,1.8-1.5,2.5c-0.7,0.6-4,3.3-4.3,3.7c-0.3,0.4-1.5,1.5-2.2,3.1c-0.5,1-1.1,2-1.9,2.7
	c-0.4,0.4-0.9,0.8-1.2,1.1V38.7c0-1,0.8-1.8,1.8-1.8h9.4C54.1,37.4,54.1,38,54,38.5z"/>
</svg>
